<svg xmlns="http://www.w3.org/2000/svg" xmlns:xlink="http://www.w3.org/1999/xlink" fill="none" version="1.1" width="20"
  height="20" viewBox="0 0 20 20">
  <path
    d="M7.66667,3.608696C7.66667,3.272522,7.92783,3,8.25,3C8.57217,3,8.83333,3.272522,8.83333,3.608696L8.83333,4.82609C8.83333,5.16226,8.57217,5.43478,8.25,5.43478C7.92783,5.43478,7.66667,5.16226,7.66667,4.82609L7.66667,3.608696ZM12.31583,5.28017Q11.34983,5.28017,10.666170000000001,5.99235L9.0165,7.71496C8.78993,7.95974,8.41505,7.96314,8.18444,7.7225C7.95383,7.48186,7.95708,7.09068,8.19167,6.85426L9.84133,5.1304300000000005Q10.86683,4.06278,12.31583,4.06278Q13.766,4.06278,14.7915,5.1316500000000005Q15.8158,6.20174,15.8158,7.71496Q15.8158,9.22696,14.7915,10.297039999999999L13.9655,11.15774L13.1407,12.01843C12.91178,12.24911,12.54795,12.24582,12.32294,12.01102C12.09793,11.77623,12.09476,11.39658,12.31583,11.15774L13.1407,10.297039999999999L13.9655,9.436350000000001Q14.6492,8.72296,14.6492,7.71496Q14.6492,6.7057400000000005,13.9655,5.99235Q13.283,5.28017,12.31583,5.28017ZM6.32967,5.61252L5.163,4.39513C4.93491,4.15712,4.56509,4.15712,4.337,4.39513C4.10891,4.63314,4.10891,5.01903,4.337,5.25704L5.50367,6.47443C5.7317599999999995,6.7124500000000005,6.101570000000001,6.7124500000000005,6.32967,6.47443C6.55776,6.23642,6.55776,5.85053,6.32967,5.61252ZM3.583333,9.086960000000001C3.261167,9.086960000000001,3,8.81443,3,8.478259999999999C3,8.14209,3.261167,7.86957,3.583333,7.86957L4.75,7.86957C5.07217,7.86957,5.33333,8.14209,5.33333,8.478259999999999C5.33333,8.81443,5.07217,9.086960000000001,4.75,9.086960000000001L3.583333,9.086960000000001ZM5.0335,12.87913Q5.0335,11.87113,5.716,11.15774L7.36683,9.436350000000001C7.59437,9.19829,7.594,8.81287,7.366,8.5753C7.13801,8.33773,6.76865,8.33788,6.54083,8.57565L4.89117,10.297039999999999Q3.8668329999999997,11.36713,3.8668329999999997,12.87913Q3.8668329999999997,14.3923,4.89117,15.4624Q5.91667,16.5313,7.36683,16.5313Q8.81583,16.5313,9.84017,15.4624L10.666170000000001,14.6017L11.491,13.7398C11.71208,13.501,11.70893,13.1213,11.48391,12.88653C11.25889,12.65173,10.895050000000001,12.64844,10.666170000000001,12.87913L9.84133,13.7398L9.0165,14.6017Q8.332830000000001,15.3139,7.36683,15.3139Q6.39967,15.3139,5.716,14.6017Q5.0335,13.8883,5.0335,12.87913ZM16.4167,12.73913L14.6667,12.73913C14.3445,12.73913,14.0833,12.46661,14.0833,12.13043C14.0833,11.79426,14.3445,11.52174,14.6667,11.52174L16.4167,11.52174C16.738799999999998,11.52174,17,11.79426,17,12.13043C17,12.46661,16.738799999999998,12.73913,16.4167,12.73913ZM15.663,15.3517L14.4963,14.1343C14.2682,13.8963,13.8984,13.8963,13.6703,14.1343C13.4422,14.3723,13.4422,14.7582,13.6703,14.9962L14.837,16.2136C15.0651,16.4516,15.4349,16.4516,15.663,16.2136C15.8911,15.9756,15.8911,15.5897,15.663,15.3517ZM12.33333,16.3913C12.33333,16.7275,12.07217,17,11.75,17C11.42783,17,11.16667,16.7275,11.16667,16.3913L11.16667,15.1739C11.16667,14.8377,11.42783,14.5652,11.75,14.5652C12.07217,14.5652,12.33333,14.8377,12.33333,15.1739L12.33333,16.3913Z"
    fill="#fff" fill-opacity="1" />
</svg>
