<svg xmlns="http://www.w3.org/2000/svg" xmlns:xlink="http://www.w3.org/1999/xlink" fill="none" version="1.1" width="20" height="20" viewBox="0 0 20 20"><defs><clipPath id="master_svg0_45_7387"><rect x="0" y="0" width="20" height="20" rx="0"/></clipPath></defs><g clip-path="url(#master_svg0_45_7387)"><g><path d="M17.2384,17L2.761333,17C2.341128,17,2,16.67,2,16.2635L2,3.73634C2,3.329938,2.341113,3,2.761333,3L11.52458,3L11.52458,4.10443L3.52452,4.10443C3.31273,4.10443,3.1421200000000002,4.26936,3.1421200000000002,4.47265L3.1421200000000002,15.5271C3.1421200000000002,15.7304,3.31273,15.8952,3.52452,15.8952L16.4755,15.8952C16.6871,15.8952,16.8579,15.7304,16.8579,15.5271L16.8579,8.52642L18,8.52642L18,16.2635C18,16.670099999999998,17.6588,17,17.2384,17ZM16.094900000000003,6.68371C15.8895,6.68371,15.6934,6.64376,15.5141,6.57213L8.92175,12.94807L8.85793,12.88473L8.79241,12.94807L6.57015,10.798739999999999L4.73049,12.57817L3.90871,11.78354L6.51512,9.26275L6.57186,9.31762L6.62876,9.26275L8.85793,11.41869L14.6909,5.77714C14.6149,5.60228,14.572,5.412319999999999,14.572,5.21082C14.572,4.396,15.2541,3.73631,16.094900000000003,3.73631C16.9372,3.73631,17.6194,4.39599,17.6194,5.21082C17.6194,6.02379,16.9372,6.68368,16.094900000000003,6.68371L16.094900000000003,6.68371Z" fill="#FFFFFF" fill-opacity="1" style="mix-blend-mode:passthrough"/></g></g></svg>