<svg xmlns="http://www.w3.org/2000/svg" xmlns:xlink="http://www.w3.org/1999/xlink" fill="none" version="1.1" width="96" height="96" viewBox="0 0 96 96"><g><g><path d="M48,0C21.48,0,0,21.48,0,48C0,74.52,21.48,96,48,96C74.52,96,96,74.52,96,48C96,21.48,74.52,0,48,0ZM48,91.8C23.82,91.8,4.2,72.18,4.2,48C4.2,23.82,23.82,4.2,48,4.2C72.18,4.2,91.8,23.82,91.8,48C91.8,72.18,72.18,91.8,48,91.8ZM48,7.2C25.44,7.2,7.2,25.44,7.2,48C7.2,70.56,25.44,88.8,48,88.8C70.56,88.8,88.8,70.56,88.8,48C88.8,25.44,70.56,7.2,48,7.2ZM65.28,26.4L30.72,26.4C28.38,26.4,26.4,28.32,26.4,30.72L26.4,65.34C26.4,67.68,28.32,69.66,30.72,69.66L65.34,69.66C67.68,69.66,69.66,67.74,69.66,65.34L69.66,30.72C69.6,28.32,67.68,26.4,65.28,26.4ZM62.4,49.14L62.4,52.2C62.4,53.52,61.32,54.6,60,54.6C58.68,54.6,57.6,53.52,57.6,52.2L57.6,49.14C56.16,48.3,55.2,46.74,55.2,45C55.2,42.36,57.36,40.2,60,40.2C62.64,40.2,64.8,42.36,64.8,45C64.8,46.8,63.84,48.3,62.4,49.14ZM74.4,68.4C74.4,71.7,71.7,74.4,68.4,74.4L59.4,74.4L59.4,77.7C59.4,79.02,58.32,80.1,57,80.1C55.68,80.1,54.6,79.02,54.6,77.7L54.6,74.4L41.4,74.4L41.4,77.7C41.4,79.02,40.32,80.1,39,80.1C37.68,80.1,36.6,79.02,36.6,77.7L36.6,74.4L27.6,74.4C24.3,74.4,21.6,71.7,21.6,68.4L21.6,27.6C21.6,24.3,24.3,21.6,27.6,21.6L36.6,21.6L36.6,18.3C36.6,16.98,37.68,15.9,39,15.9C40.32,15.9,41.4,16.98,41.4,18.3L41.4,21.6L54.6,21.6L54.6,18.3C54.6,16.98,55.68,15.9,57,15.9C58.32,15.9,59.4,16.98,59.4,18.3L59.4,21.6L68.4,21.6C71.7,21.6,74.4,24.3,74.4,27.6L74.4,68.4Z" fill="#6E86C2" fill-opacity="1" style="mix-blend-mode:passthrough"/></g></g></svg>