<svg xmlns="http://www.w3.org/2000/svg" xmlns:xlink="http://www.w3.org/1999/xlink" fill="none" version="1.1" width="28"
  height="28" viewBox="0 0 28 28">
  <defs>
    <clipPath id="master_svg0_45_7057">
      <rect x="0" y="0" width="28" height="28" rx="0" />
    </clipPath>
  </defs>
  <g clip-path="url(#master_svg0_45_7057)">
    <g>
      <path
        d="M15.763769384765626,25.43511962890625L4.459869384765625,25.43511962890625C3.013389384765625,25.43511962890625,1.834869384765625,24.25661962890625,1.834869384765625,22.81011962890625L1.834869384765625,4.43511962890625C1.834869384765625,2.98863962890625,3.013389384765625,1.81011962890625,4.459869384765625,1.81011962890625L22.834869384765625,1.81011962890625C24.281369384765625,1.81011962890625,25.459869384765625,2.98863962890625,25.459869384765625,4.43511962890625L25.459869384765625,15.77731962890625C25.459869384765625,16.26131962890625,25.068869384765627,16.65231962890625,24.584869384765625,16.65231962890625C24.100869384765623,16.65231962890625,23.709869384765625,16.26131962890625,23.709869384765625,15.77731962890625L23.709869384765625,4.43511962890625C23.709869384765625,3.95386962890625,23.316169384765626,3.56011962890625,22.834869384765625,3.56011962890625L4.459869384765625,3.56011962890625C3.978619384765625,3.56011962890625,3.584869384765625,3.95386962890625,3.584869384765625,4.43511962890625L3.584869384765625,22.81011962890625C3.584869384765625,23.29141962890625,3.978619384765625,23.68511962890625,4.459869384765625,23.68511962890625L15.763769384765626,23.68511962890625C16.247769384765625,23.68511962890625,16.638769384765624,24.07611962890625,16.638769384765624,24.56011962890625C16.638769384765624,25.04411962890625,16.247769384765625,25.43511962890625,15.763769384765626,25.43511962890625Z"
        fill="#576FAA" fill-opacity="1" style="mix-blend-mode:passthrough" />
    </g>
    <g>
      <path
        d="M18.93294482421875,8.81292724609375L6.71844482421875,8.81292724609375C6.23446082421875,8.81292724609375,5.84344482421875,8.42190724609375,5.84344482421875,7.93792724609375C5.84344482421875,7.45394324609375,6.23446082421875,7.06292724609375,6.71844482421875,7.06292724609375L18.93294482421875,7.06292724609375C19.41684482421875,7.06292724609375,19.80794482421875,7.45394324609375,19.80794482421875,7.93792724609375C19.80794482421875,8.42190724609375,19.41684482421875,8.81292724609375,18.93294482421875,8.81292724609375ZM10.62313482421875,14.49769724609375L6.71844482421875,14.49769724609375C6.23446082421875,14.49769724609375,5.84344482421875,14.10667724609375,5.84344482421875,13.62269724609375C5.84344482421875,13.13870724609375,6.23446082421875,12.74769724609375,6.71844482421875,12.74769724609375L10.62039482421875,12.74769724609375C11.10438482421875,12.74769724609375,11.49539482421875,13.13870724609375,11.49539482421875,13.62269724609375C11.49813482421875,14.10394724609375,11.10438482421875,14.49769724609375,10.62313482421875,14.49769724609375ZM10.62313482421875,20.179727246093748L6.71844482421875,20.179727246093748C6.23446082421875,20.179727246093748,5.84344482421875,19.78872724609375,5.84344482421875,19.304727246093748C5.84344482421875,18.82072724609375,6.23446082421875,18.429727246093748,6.71844482421875,18.429727246093748L10.62039482421875,18.429727246093748C11.10438482421875,18.429727246093748,11.49539482421875,18.82072724609375,11.49539482421875,19.304727246093748C11.49813482421875,19.78872724609375,11.10438482421875,20.179727246093748,10.62313482421875,20.179727246093748Z"
        fill="#576FAA" fill-opacity="1" style="mix-blend-mode:passthrough" />
    </g>
    <g>
      <path
        d="M17.065333134765623,21.669921875C14.473153134765624,21.669921875,12.362213134765625,19.558981875,12.362213134765625,16.966791875C12.362213134765625,14.374611875,14.473153134765624,12.263671875,17.065333134765623,12.263671875C19.657523134765626,12.263671875,21.768463134765625,14.374611875,21.768463134765625,16.966791875C21.768463134765625,19.558981875,19.660263134765625,21.669921875,17.065333134765623,21.669921875ZM17.065333134765623,14.013671875C15.435653134765625,14.013671875,14.112213134765625,15.337111875,14.112213134765625,16.966791875C14.112213134765625,18.596481875000002,15.435653134765625,19.919921875,17.065333134765623,19.919921875C18.695023134765627,19.919921875,20.018463134765625,18.596481875000002,20.018463134765625,16.966791875C20.018463134765625,15.337111875,18.695023134765627,14.013671875,17.065333134765623,14.013671875Z"
        fill="#576FAA" fill-opacity="1" style="mix-blend-mode:passthrough" />
    </g>
    <g>
      <path
        d="M22.44374671875,23.630424765625L19.42773471875,20.614404765625C19.08593751875,20.272604765625,19.08593751875,19.717529765625,19.42773471875,19.375732765625C19.76953171875,19.033935565625,20.32460671875,19.033935565625,20.66640671875,19.375732765625L23.67968671875,22.391744765625C24.02148671875,22.733544765625,24.02148671875,23.288624765625002,23.67968671875,23.630424765625C23.33788671875,23.972214765625,22.78554671875,23.972214765625,22.44374671875,23.630424765625Z"
        fill="#576FAA" fill-opacity="1" style="mix-blend-mode:passthrough" />
    </g>
  </g>
</svg>
