<svg xmlns="http://www.w3.org/2000/svg" xmlns:xlink="http://www.w3.org/1999/xlink" fill="none" version="1.1" width="20" height="20" viewBox="0 0 20 20"><defs><clipPath id="master_svg0_45_7379"><rect x="0" y="0" width="20" height="20" rx="0"/></clipPath></defs><g clip-path="url(#master_svg0_45_7379)"><g><path d="M9.999939999999999,2.0114423C11.84657,2.0114423,13.6932,2.0366857,15.5398,2.000223085C16.2546,1.986199,17.011,2.634112,16.9999,3.6775C16.9832,5.121980000000001,16.9971,6.56646,16.9971,8.01094L16.9971,13.615C16.9971,14.1872,16.8386,14.6864,16.4103,15.023C16.274,15.1296,16.1127,15.1941,15.9598,15.2698C14.2383,16.0944,12.51958,16.919,10.79532,17.738C10.57284,17.8446,10.33923,17.9372,10.10284,17.9849C9.794139999999999,18.0494,9.51881,17.8951,9.23793,17.7577C7.51923,16.905,5.80609,16.0439,4.07349,15.2249C3.205799,14.8154,3,14.1731,3,13.3625C3.0111242,10.137,3.00278086,6.91426,3.00556212,3.68872C3.00556212,2.8725199999999997,3.336509,2.314362,3.965029,2.0731472C4.0679300000000005,2.0338798,4.18473,2.0198558,4.29319,2.0198558C6.19266,2.0114413,8.09769,2.0114413,9.999939999999999,2.0114423ZM9.977689999999999,3.1922699999999997L4.45728,3.1922699999999997C4.14024,3.1922699999999997,4.03734,3.30166,4.03734,3.65226C4.03734,6.93951,4.03734,10.22955,4.03456,13.5168C4.03456,13.7861,4.12355,13.9572,4.3515999999999995,14.0693C6.10089,14.922,7.8474,15.7775,9.588339999999999,16.6498C9.86645,16.79,10.091709999999999,16.7984,10.37538,16.6582C12.12189,15.8027,13.8795,14.9697,15.6372,14.1423C15.8763,14.0301,15.9598,13.859,15.9598,13.5757C15.957,10.28004,15.957,6.98158,15.957,3.6859200000000003C15.957,3.3044599999999997,15.8541,3.18946,15.5176,3.18946C13.6737,3.1922699999999997,11.8271,3.1922699999999997,9.977689999999999,3.1922699999999997Z" fill="#FFFFFF" fill-opacity="1" style="mix-blend-mode:passthrough"/></g><g><path d="M9.284130000000001,9.85012C9.3873,9.73147,9.45872,9.63049,9.54866,9.54466C10.321110000000001,8.799949999999999,11.09619,8.05524,11.871279999999999,7.313058C12.07497,7.118676,12.29453,6.9343925,12.62256,7.0227479C12.95852,7.111103,13.104009999999999,7.436756,12.91884,7.716968C12.83154,7.8482389999999995,12.71779,7.969411,12.604040000000001,8.08049C11.69669,8.95142,10.78933,9.82235,9.87933,10.69075C9.44549,11.104759999999999,9.03547,11.10224,8.60956,10.68823C8.17044,10.26412,7.728664,9.84254,7.297472,9.41086C7.196949,9.30989,7.112298,9.18619,7.0488094,9.05744C6.9509318,8.86054,7.00648385,8.66868,7.159914,8.52226C7.313345,8.37837,7.517036,8.38847,7.683693,8.48945C7.929711,8.63839,8.17308,8.799949999999999,8.38735,8.98424C8.68628,9.246780000000001,8.95875,9.534559999999999,9.284130000000001,9.85012Z" fill="#FFFFFF" fill-opacity="1" style="mix-blend-mode:passthrough"/></g></g></svg>